<?xml version="1.0" encoding="UTF-8"?>
<svg id="Layer_1" data-name="Layer 1" xmlns="http://www.w3.org/2000/svg" viewBox="0 0 1024 768">
  <defs>
    <style>
      .cls-1 {
        fill: #d4af37;
      }
    </style>
  </defs>
  <path class="cls-1" d="M749.38,501.77l-83.09,62.87c-9.33,7.06-22.34,6.53-31.07-1.25l-62.82-56-46.87-41.8c-8.73-7.79-21.75-8.31-31.08-1.25l-68.04,51.49c-6.12,4.63-9.71,11.86-9.71,19.53v77.66c0,7.67-3.59,14.9-9.71,19.53l-102.17,77.32c-16.13,12.21-39.26.7-39.26-19.53V86.17c0-21.14,25-32.35,40.78-18.28l102.17,91.06c5.21,4.65,8.19,11.3,8.19,18.28v195.04l2.15-1.67,106.87-80.86c9.32-7.06,22.34-6.53,31.07,1.25l76.54,68.21,61.89,55.19,55.66,49.57c11.53,10.26,10.8,28.5-1.51,37.82Z"/>
</svg>