<?xml version="1.0" encoding="UTF-8"?>
<svg id="Layer_1" data-name="Layer 1" xmlns="http://www.w3.org/2000/svg" viewBox="0 0 1024 768">
  <defs>
    <style>
      .cls-1 {
        fill: #d4af37;
      }
    </style>
  </defs>
  <path class="cls-1" d="M458.94,633.69v57.87c0,11.43-10.55,20.07-21.72,17.67-64.71-13.88-122.54-46.3-167.73-91.49-23.65-23.65-43.79-50.76-59.6-80.52-14.45-27.15-25.29-56.5-31.88-87.38-2.36-11.07,6.15-21.52,17.47-21.65l57.73-.67c8.21-.09,15.47,5.38,17.54,13.33,2.39,9.16,5.29,18.13,8.67,26.84,12.44,32.07,31.49,60.9,55.36,84.77,30.3,30.3,68.42,52.71,111.09,63.95,7.78,2.05,13.08,9.24,13.08,17.28Z"/>
  <path class="cls-1" d="M734.34,152.89l-39.92,39.92c-6.69,6.69-17.38,7.01-24.51.79-21.25-18.54-45.75-33.53-72.51-43.91-12.65-4.96-25.81-8.84-39.4-11.65-16.03-3.24-32.57-4.96-49.54-4.96s-33.51,1.73-49.54,4.96c-25.81,5.32-50.18,14.67-72.33,27.39-23.41,13.39-44.44,30.51-62.22,50.62-6.92,7.83-18.91,8.38-26.3.99l-39.87-39.86c-6.79-6.79-7.06-17.74-.63-24.87,18.37-20.37,39.24-38.47,62.08-53.88,40.91-27.68,88.22-46.59,139.26-54.07,16.18-2.37,32.71-3.59,49.54-3.59s33.36,1.22,49.54,3.59c38.83,5.68,75.56,18.05,108.93,35.8,24.13,12.82,46.51,28.48,66.72,46.55,7.7,6.88,7.99,18.87.68,26.17Z"/>
  <path class="cls-1" d="M846.39,378.76c0,14.24-.86,28.26-2.59,42.06-6.69,53.92-26.1,103.89-55,146.81-15.43,22.79-33.5,43.57-53.78,61.85-7.17,6.47-18.13,6.29-24.96-.54l-53.91-53.91-47.31-47.24-50.83-50.9-52.27-52.2-8.85-8.88c-7.02-7.05-18.43-7.06-25.47-.02l-9.33,9.33-3.16.07v3.09l-64.09,64.09c-7.66,7.66-20.2,6.79-26.97-1.67-14.93-18.65-26.18-40.38-32.68-64.07-.16-.58-.32-1.17-.48-1.76-1.63-6.15.22-12.72,4.72-17.22l73.69-73.69h1.87l-.94-.93,123.23-123.23c4.57-4.57,11.27-6.39,17.5-4.67,1.07.3,2.14.61,3.21.93,23.01,6.57,44.16,17.63,62.38,32.15,8.47,6.75,9.32,19.31,1.66,26.97l-67.21,67.21h-1.22l.57.65,90.09,90.09,28.4,28.4,31.5,31.5c9.04,9.04,24.22,5.98,29.35-5.73,4.61-10.52,8.5-21.43,11.62-32.66,3.17-11.4-5.83-22.61-17.66-22.47l-22.86.27c-10.91.13-19.44-9.4-18.01-20.21,1.01-7.67,1.52-15.5,1.52-23.46,0-9.4-.72-18.64-2.12-27.66-1.66-10.69,6.77-20.28,17.58-20.41l45.72-.53,77.27-.89c9.37-.11,17.26,6.99,18.18,16.32,1.08,10.91,1.61,21.97,1.61,33.18Z"/>
</svg>