<?xml version="1.0" encoding="UTF-8"?>
<svg id="Layer_1" data-name="Layer 1" xmlns="http://www.w3.org/2000/svg" viewBox="0 0 949.3 189.72">
  <defs>
    <style>
      .cls-1 {
        fill: #d4af37;
      }
    </style>
  </defs>
  <path class="cls-1" d="M84.98,92.65L155.53,16.63v-.9h-37.19l-60.37,67.18V15.73h-29.96v158.86h29.96v-70.37l66.47,70.37h37v-1.83l-76.47-80.11Z"/>
  <path class="cls-1" d="M340.27,166.47l-60.93-135.83c-2.06-4.53-5.32-8.24-9.32-10.86-3.97-2.58-8.73-4.04-13.71-4.04-9.92,0-18.95,5.84-23.03,14.9l-60.93,135.83c-1.69,3.82,1.09,8.13,5.24,8.13h19.89c2.25,0,4.31-1.35,5.24-3.37l9.92-21.83c1.05-2.36,3.37-3.89,5.95-3.89l79.24-.86,11.87,26.55c.94,2.06,3,3.41,5.24,3.41h20.07c4.16,0,6.97-4.31,5.24-8.13ZM279.3,119.28l-57.82,22.69c-2.47.97-4.87-1.54-3.82-3.97l34.42-79.21c1.61-3.67,6.85-3.71,8.46,0l22.47,51.49c1.54,3.52-.15,7.56-3.71,8.99Z"/>
  <path class="cls-1" d="M438.72,19.7l-42.21,65.57-40.37-65.57h-35.65v1.35l61.04,91.9v50.63c0,4.12,1.69,7.86,4.38,10.56,2.73,2.7,6.48,4.38,10.6,4.38,8.28,0,14.98-6.7,14.98-14.94v-50.63l63.33-91.9v-1.35h-36.1Z"/>
  <path class="cls-1" d="M607.7,82.65h-40.3c-3.71,0-7.04,1.5-9.47,3.93-2.43,2.43-3.93,5.77-3.93,9.47,0,7.38,6.03,13.37,13.41,13.37h22.32c2.73,0,4.91,2.21,4.91,4.91v9.96c0,9.55-5.58,18.35-14.38,22.06-7.04,2.96-13.97,3.93-21.46,3.93-39.51,0-54.71-27-54.71-53.1,0-32.66,20.67-58.53,54.71-58.53,10.49,0,22.17,3.26,31.83,9.29,5.43,3.37,12.43,2.62,16.89-1.95,5.88-6.03,4.91-15.92-2.06-20.6-14.08-9.44-30.37-14.19-46.66-14.19-56.06,0-83.96,41.31-83.96,85.98,0,41.76,24.27,81.04,83.96,81.04,23.52,0,41.23-7.6,55.61-20.71,4.94-4.53,7.68-10.97,7.68-17.68v-42.77c0-7.94-6.44-14.42-14.38-14.42Z"/>
  <path class="cls-1" d="M744.8,15.96h-78.64c-11.98,0-21.68,9.7-21.68,21.68v121.97c0,4.12,1.69,7.86,4.38,10.6,2.7,2.7,6.44,4.38,10.6,4.38,8.28,0,14.98-6.7,14.98-14.98v-22.13c0-11.98,9.7-21.68,21.68-21.68h44.15c3.82,0,7.26-1.54,9.77-4.04,2.51-2.51,4.04-5.95,4.04-9.77,0-7.68-6.18-13.86-13.82-13.86h-44.15c-5.99,0-11.42-2.43-15.35-6.33-3.89-3.93-6.33-9.36-6.33-15.35,0-11.95,9.7-21.65,21.68-21.65h48.68c7.64,0,13.82-6.22,13.82-13.86v-1.12c0-7.68-6.18-13.86-13.82-13.86Z"/>
  <path class="cls-1" d="M874.53,104.11c-4.12-5.92-4.12-13.82,0-19.74l46.14-66.17c.49-.71.75-1.57.75-2.47h-30.6c-1.42,0-2.77.71-3.6,1.91l-24.08,35.91c-6.82,10.22-21.83,10.22-28.69,0l-24.08-35.91c-.79-1.2-2.13-1.91-3.6-1.91h-30.6c0,.9.26,1.76.79,2.47l45.95,66.17c4.08,5.95,4.08,13.78,0,19.74l-48.31,69.54v.94h31.27c1.46,0,2.81-.71,3.6-1.91l25.05-36.81c6.85-10.07,21.72-10.07,28.57,0l22.39,32.96c2.47,3.6,6.55,5.77,10.9,5.77h26.63v-.94l-48.5-69.54Z"/>
</svg>