<?xml version="1.0" encoding="UTF-8"?>
<svg id="Layer_1" data-name="Layer 1" xmlns="http://www.w3.org/2000/svg" viewBox="0 0 1024 768">
  <defs>
    <style>
      .cls-1 {
        fill: #d4af37;
      }
    </style>
  </defs>
  <path class="cls-1" d="M141.85,327.33l-50.99,54.92,55.25,57.87v1.31h-26.72l-48.04-50.82v50.82h-21.64v-114.76h21.64v48.53l43.61-48.53h26.89v.66Z"/>
  <path class="cls-1" d="M244.65,419.8l-57.25.62c-1.86.02-3.55,1.12-4.32,2.81l-7.17,15.77c-.67,1.48-2.15,2.44-3.78,2.44h-14.35c-3.01,0-5.02-3.11-3.79-5.85l44.02-98.14c2.94-6.55,9.45-10.77,16.64-10.77h0c7.18,0,13.7,4.22,16.64,10.77l44.02,98.14c1.23,2.75-.78,5.85-3.79,5.85h-14.5c-1.64,0-3.12-.96-3.79-2.46l-8.57-19.18ZM211.6,357.8l-24.87,57.22c-.77,1.76.98,3.58,2.77,2.87l41.76-16.41c2.57-1.01,3.79-3.95,2.68-6.49l-16.23-37.2c-1.17-2.67-4.95-2.67-6.12,0Z"/>
  <path class="cls-1" d="M315.95,376.92l30.49-47.38h26.07v.98l-45.74,66.4v36.56c0,5.98-4.84,10.82-10.82,10.82h0c-5.98,0-10.82-4.84-10.82-10.82v-36.56s-44.1-66.4-44.1-66.4v-.98h25.74l29.18,47.38Z"/>
  <path class="cls-1" d="M468.38,348.54c-3.22,3.3-8.29,3.85-12.21,1.41-6.99-4.35-15.42-6.71-23-6.71-24.59,0-39.51,18.69-39.51,42.3,0,18.85,10.98,38.36,39.51,38.36,5.42,0,10.43-.71,15.52-2.85,6.36-2.67,10.39-9.04,10.39-15.94v-7.19c0-1.95-1.58-3.54-3.54-3.54h-16.14c-5.34,0-9.67-4.33-9.67-9.67h0c0-5.34,4.33-9.67,9.67-9.67h29.11c5.74,0,10.4,4.65,10.4,10.4v30.91c0,4.84-1.98,9.5-5.56,12.77-10.38,9.48-23.18,14.95-40.18,14.95-43.12,0-60.66-28.36-60.66-58.53,0-32.3,20.17-62.14,60.66-62.14,11.77,0,23.55,3.44,33.71,10.26,5.04,3.38,5.74,10.53,1.5,14.88h0Z"/>
  <path class="cls-1" d="M590.49,441.19h-25.74l-33.44-38.36h-20.82v27.54c0,5.98-4.84,10.82-10.82,10.82h0c-5.98,0-10.82-4.84-10.82-10.82v-104.11c18.2,0,36.4.16,54.59.16,27.05.16,41.31,18.2,41.31,38.04,0,15.74-7.21,31.64-29.02,36.07l34.76,39.18v1.48ZM510.48,346.6v36.72h32.95c13.77,0,19.67-9.18,19.67-18.36s-6.07-18.36-19.67-18.36h-32.95Z"/>
  <path class="cls-1" d="M687.11,419.8h-60l-9.84,21.64h-23.44l51.48-114.76h23.61l51.48,114.76h-23.61l-9.67-21.64ZM657.11,350.78l-21.31,48.86h42.63l-21.31-48.86Z"/>
  <path class="cls-1" d="M728.42,430.62v-88.12c0-8.65,7.01-15.66,15.66-15.66h56.81c5.52,0,10,4.48,10,10v.82c0,5.52-4.48,10-10,10h-35.17c-8.65,0-15.66,7.01-15.66,15.66h0c0,8.65,7.01,15.66,15.66,15.66h31.89c5.52,0,10,4.48,10,10h0c0,5.52-4.48,10-10,10h-31.89c-8.65,0-15.66,7.01-15.66,15.66v15.98c0,5.98-4.84,10.82-10.82,10.82h0c-5.98,0-10.82-4.84-10.82-10.82Z"/>
  <path class="cls-1" d="M827.6,430.7v-93.28c0-5.93,4.81-10.74,10.74-10.74h0c5.93,0,10.74,4.81,10.74,10.74v93.28c0,5.93-4.81,10.74-10.74,10.74h0c-5.93,0-10.74-4.81-10.74-10.74Z"/>
  <path class="cls-1" d="M946.35,328.06c.58-.87,1.56-1.39,2.6-1.39h22.1c0,.64-.2,1.26-.56,1.79l-33.32,47.8c-2.99,4.29-2.99,9.98,0,14.27l35.03,50.24v.66h-19.23c-3.15,0-6.09-1.56-7.86-4.16l-16.2-23.8c-4.95-7.28-15.68-7.28-20.63,0l-18.1,26.59c-.58.86-1.55,1.37-2.59,1.37h-22.61v-.66l34.9-50.26c2.97-4.28,2.97-9.95,0-14.23l-33.19-47.82c-.36-.52-.56-1.15-.56-1.79h0s22.1,0,22.1,0c1.04,0,2.02.52,2.6,1.39l17.4,25.94c4.94,7.37,15.79,7.37,20.73,0l17.4-25.94Z"/>
</svg>